<mxfile host="app.diagrams.net" agent="Mozilla/5.0 (Windows NT 10.0; Win64; x64; rv:129.0) Gecko/20100101 Firefox/129.0" version="24.7.7">
  <diagram id="C5RBs43oDa-KdzZeNtuy" name="Main flow">
    <mxGraphModel dx="1016" dy="609" grid="1" gridSize="10" guides="1" tooltips="1" connect="1" arrows="1" fold="1" page="1" pageScale="1" pageWidth="827" pageHeight="1169" math="0" shadow="0">
      <root>
        <mxCell id="WIyWlLk6GJQsqaUBKTNV-0" />
        <mxCell id="WIyWlLk6GJQsqaUBKTNV-1" parent="WIyWlLk6GJQsqaUBKTNV-0" />
        <mxCell id="WIyWlLk6GJQsqaUBKTNV-2" value="" style="rounded=0;html=1;jettySize=auto;orthogonalLoop=1;fontSize=11;endArrow=block;endFill=0;endSize=8;strokeWidth=1;shadow=0;labelBackgroundColor=none;edgeStyle=orthogonalEdgeStyle;" parent="WIyWlLk6GJQsqaUBKTNV-1" source="WIyWlLk6GJQsqaUBKTNV-3" edge="1">
          <mxGeometry relative="1" as="geometry">
            <mxPoint x="215" y="430" as="targetPoint" />
          </mxGeometry>
        </mxCell>
        <mxCell id="WIyWlLk6GJQsqaUBKTNV-3" value="&lt;div&gt;Match 2 players&lt;/div&gt;" style="rounded=1;whiteSpace=wrap;html=1;fontSize=12;glass=0;strokeWidth=1;shadow=0;" parent="WIyWlLk6GJQsqaUBKTNV-1" vertex="1">
          <mxGeometry x="155" y="340" width="120" height="40" as="geometry" />
        </mxCell>
        <mxCell id="WIyWlLk6GJQsqaUBKTNV-7" value="&lt;div&gt;Create a room&lt;br&gt;&lt;/div&gt;" style="rounded=1;whiteSpace=wrap;html=1;fontSize=12;glass=0;strokeWidth=1;shadow=0;" parent="WIyWlLk6GJQsqaUBKTNV-1" vertex="1">
          <mxGeometry x="155" y="430" width="120" height="40" as="geometry" />
        </mxCell>
        <mxCell id="WIyWlLk6GJQsqaUBKTNV-11" value="Wait while both press &#39;Ready&#39;" style="rounded=1;whiteSpace=wrap;html=1;fontSize=12;glass=0;strokeWidth=1;shadow=0;" parent="WIyWlLk6GJQsqaUBKTNV-1" vertex="1">
          <mxGeometry x="140" y="520" width="150" height="60" as="geometry" />
        </mxCell>
        <mxCell id="WIyWlLk6GJQsqaUBKTNV-12" value="First Player selection" style="rounded=1;whiteSpace=wrap;html=1;fontSize=12;glass=0;strokeWidth=1;shadow=0;" parent="WIyWlLk6GJQsqaUBKTNV-1" vertex="1">
          <mxGeometry x="140" y="620" width="150" height="40" as="geometry" />
        </mxCell>
        <mxCell id="NY05rLfX3Yqyub_NBzvn-4" value="" style="rounded=0;html=1;jettySize=auto;orthogonalLoop=1;fontSize=11;endArrow=block;endFill=0;endSize=8;strokeWidth=1;shadow=0;labelBackgroundColor=none;edgeStyle=orthogonalEdgeStyle;" parent="WIyWlLk6GJQsqaUBKTNV-1" edge="1">
          <mxGeometry relative="1" as="geometry">
            <mxPoint x="214.5" y="470" as="sourcePoint" />
            <mxPoint x="214.5" y="520" as="targetPoint" />
          </mxGeometry>
        </mxCell>
        <mxCell id="NY05rLfX3Yqyub_NBzvn-5" value="" style="rounded=0;html=1;jettySize=auto;orthogonalLoop=1;fontSize=11;endArrow=block;endFill=0;endSize=8;strokeWidth=1;shadow=0;labelBackgroundColor=none;edgeStyle=orthogonalEdgeStyle;entryX=0.5;entryY=0;entryDx=0;entryDy=0;" parent="WIyWlLk6GJQsqaUBKTNV-1" target="WIyWlLk6GJQsqaUBKTNV-12" edge="1">
          <mxGeometry relative="1" as="geometry">
            <mxPoint x="214.5" y="580" as="sourcePoint" />
            <mxPoint x="215" y="610" as="targetPoint" />
          </mxGeometry>
        </mxCell>
        <mxCell id="NY05rLfX3Yqyub_NBzvn-7" value="Perform 3 rounds sequentially" style="rounded=1;whiteSpace=wrap;html=1;fontSize=12;glass=0;strokeWidth=1;shadow=0;" parent="WIyWlLk6GJQsqaUBKTNV-1" vertex="1">
          <mxGeometry x="140" y="700" width="150" height="40" as="geometry" />
        </mxCell>
        <mxCell id="NY05rLfX3Yqyub_NBzvn-8" value="" style="rounded=0;html=1;jettySize=auto;orthogonalLoop=1;fontSize=11;endArrow=block;endFill=0;endSize=8;strokeWidth=1;shadow=0;labelBackgroundColor=none;edgeStyle=orthogonalEdgeStyle;entryX=0.5;entryY=0;entryDx=0;entryDy=0;" parent="WIyWlLk6GJQsqaUBKTNV-1" edge="1">
          <mxGeometry relative="1" as="geometry">
            <mxPoint x="214.5" y="660" as="sourcePoint" />
            <mxPoint x="215" y="700" as="targetPoint" />
          </mxGeometry>
        </mxCell>
        <mxCell id="NY05rLfX3Yqyub_NBzvn-9" value="" style="rounded=0;html=1;jettySize=auto;orthogonalLoop=1;fontSize=11;endArrow=block;endFill=0;endSize=8;strokeWidth=1;shadow=0;labelBackgroundColor=none;edgeStyle=orthogonalEdgeStyle;entryX=0.5;entryY=0;entryDx=0;entryDy=0;" parent="WIyWlLk6GJQsqaUBKTNV-1" edge="1">
          <mxGeometry relative="1" as="geometry">
            <mxPoint x="214.25" y="740" as="sourcePoint" />
            <mxPoint x="214.75" y="780" as="targetPoint" />
            <Array as="points">
              <mxPoint x="214.75" y="770" />
              <mxPoint x="215.75" y="770" />
            </Array>
          </mxGeometry>
        </mxCell>
        <mxCell id="NY05rLfX3Yqyub_NBzvn-10" value="&lt;div&gt;Define the winner.&lt;/div&gt;&lt;div&gt;Display the score and the winner&#39;s name.&lt;br&gt;&lt;/div&gt;" style="rounded=1;whiteSpace=wrap;html=1;fontSize=12;glass=0;strokeWidth=1;shadow=0;" parent="WIyWlLk6GJQsqaUBKTNV-1" vertex="1">
          <mxGeometry x="140" y="780" width="150" height="60" as="geometry" />
        </mxCell>
        <mxCell id="NY05rLfX3Yqyub_NBzvn-11" value="Offer for a rematch" style="rounded=1;whiteSpace=wrap;html=1;fontSize=12;glass=0;strokeWidth=1;shadow=0;" parent="WIyWlLk6GJQsqaUBKTNV-1" vertex="1">
          <mxGeometry x="150" y="880" width="130" height="30" as="geometry" />
        </mxCell>
        <mxCell id="NY05rLfX3Yqyub_NBzvn-12" value="" style="rounded=0;html=1;jettySize=auto;orthogonalLoop=1;fontSize=11;endArrow=block;endFill=0;endSize=8;strokeWidth=1;shadow=0;labelBackgroundColor=none;edgeStyle=orthogonalEdgeStyle;entryX=0.5;entryY=0;entryDx=0;entryDy=0;" parent="WIyWlLk6GJQsqaUBKTNV-1" edge="1">
          <mxGeometry relative="1" as="geometry">
            <mxPoint x="214.25" y="840" as="sourcePoint" />
            <mxPoint x="214.75" y="880" as="targetPoint" />
            <Array as="points">
              <mxPoint x="214.75" y="870" />
              <mxPoint x="215.75" y="870" />
            </Array>
          </mxGeometry>
        </mxCell>
        <mxCell id="NY05rLfX3Yqyub_NBzvn-14" value="Rematch accepted" style="rhombus;whiteSpace=wrap;html=1;" parent="WIyWlLk6GJQsqaUBKTNV-1" vertex="1">
          <mxGeometry x="175" y="950" width="80" height="80" as="geometry" />
        </mxCell>
        <mxCell id="NY05rLfX3Yqyub_NBzvn-15" value="" style="rounded=0;html=1;jettySize=auto;orthogonalLoop=1;fontSize=11;endArrow=block;endFill=0;endSize=8;strokeWidth=1;shadow=0;labelBackgroundColor=none;edgeStyle=orthogonalEdgeStyle;entryX=0.5;entryY=0;entryDx=0;entryDy=0;" parent="WIyWlLk6GJQsqaUBKTNV-1" edge="1">
          <mxGeometry relative="1" as="geometry">
            <mxPoint x="214.25" y="910" as="sourcePoint" />
            <mxPoint x="214.75" y="950" as="targetPoint" />
            <Array as="points">
              <mxPoint x="214.75" y="940" />
              <mxPoint x="215.75" y="940" />
            </Array>
          </mxGeometry>
        </mxCell>
        <mxCell id="NY05rLfX3Yqyub_NBzvn-16" value="" style="endArrow=classic;html=1;rounded=0;exitX=0;exitY=0.5;exitDx=0;exitDy=0;entryX=0;entryY=0.5;entryDx=0;entryDy=0;" parent="WIyWlLk6GJQsqaUBKTNV-1" source="NY05rLfX3Yqyub_NBzvn-14" target="WIyWlLk6GJQsqaUBKTNV-11" edge="1">
          <mxGeometry width="50" height="50" relative="1" as="geometry">
            <mxPoint x="450" y="780" as="sourcePoint" />
            <mxPoint x="100" y="540" as="targetPoint" />
            <Array as="points">
              <mxPoint x="100" y="990" />
              <mxPoint x="100" y="550" />
            </Array>
          </mxGeometry>
        </mxCell>
        <mxCell id="NY05rLfX3Yqyub_NBzvn-17" value="Free up the room" style="rounded=1;whiteSpace=wrap;html=1;" parent="WIyWlLk6GJQsqaUBKTNV-1" vertex="1">
          <mxGeometry x="155" y="1070" width="120" height="40" as="geometry" />
        </mxCell>
        <mxCell id="NY05rLfX3Yqyub_NBzvn-20" value="" style="rounded=0;html=1;jettySize=auto;orthogonalLoop=1;fontSize=11;endArrow=block;endFill=0;endSize=8;strokeWidth=1;shadow=0;labelBackgroundColor=none;edgeStyle=orthogonalEdgeStyle;entryX=0.5;entryY=0;entryDx=0;entryDy=0;" parent="WIyWlLk6GJQsqaUBKTNV-1" edge="1">
          <mxGeometry relative="1" as="geometry">
            <mxPoint x="214.5" y="1030" as="sourcePoint" />
            <mxPoint x="215" y="1070" as="targetPoint" />
            <Array as="points">
              <mxPoint x="215" y="1060" />
              <mxPoint x="216" y="1060" />
            </Array>
          </mxGeometry>
        </mxCell>
        <mxCell id="NY05rLfX3Yqyub_NBzvn-21" value="&lt;font style=&quot;font-size: 14px; font-weight: normal;&quot;&gt;&lt;i&gt;Yes&lt;/i&gt;&lt;/font&gt; " style="text;strokeColor=none;fillColor=none;html=1;fontSize=24;fontStyle=1;verticalAlign=middle;align=center;" parent="WIyWlLk6GJQsqaUBKTNV-1" vertex="1">
          <mxGeometry x="90" y="940" width="100" height="40" as="geometry" />
        </mxCell>
        <mxCell id="NY05rLfX3Yqyub_NBzvn-22" value="&lt;font style=&quot;font-size: 14px;&quot;&gt;&lt;i&gt;No&lt;/i&gt;&lt;/font&gt;" style="text;strokeColor=none;fillColor=none;html=1;fontSize=24;fontStyle=0;verticalAlign=middle;align=center;" parent="WIyWlLk6GJQsqaUBKTNV-1" vertex="1">
          <mxGeometry x="130" y="1020" width="100" height="40" as="geometry" />
        </mxCell>
        <mxCell id="0ksEMlfksTZ5qbVNrLkg-1" value="put player in db" style="rounded=1;whiteSpace=wrap;html=1;" vertex="1" parent="WIyWlLk6GJQsqaUBKTNV-1">
          <mxGeometry x="157.5" y="120" width="115" height="30" as="geometry" />
        </mxCell>
        <mxCell id="0ksEMlfksTZ5qbVNrLkg-2" value="is there more than one user ?" style="rhombus;whiteSpace=wrap;html=1;" vertex="1" parent="WIyWlLk6GJQsqaUBKTNV-1">
          <mxGeometry x="112.5" y="200" width="205" height="90" as="geometry" />
        </mxCell>
        <mxCell id="0ksEMlfksTZ5qbVNrLkg-4" value="" style="rounded=0;html=1;jettySize=auto;orthogonalLoop=1;fontSize=11;endArrow=block;endFill=0;endSize=8;strokeWidth=1;shadow=0;labelBackgroundColor=none;edgeStyle=orthogonalEdgeStyle;" edge="1" parent="WIyWlLk6GJQsqaUBKTNV-1">
          <mxGeometry relative="1" as="geometry">
            <mxPoint x="214.47" y="340" as="targetPoint" />
            <mxPoint x="214.47" y="290" as="sourcePoint" />
            <Array as="points">
              <mxPoint x="214.47" y="300" />
              <mxPoint x="214.47" y="300" />
            </Array>
          </mxGeometry>
        </mxCell>
        <mxCell id="0ksEMlfksTZ5qbVNrLkg-5" value="" style="rounded=0;html=1;jettySize=auto;orthogonalLoop=1;fontSize=11;endArrow=block;endFill=0;endSize=8;strokeWidth=1;shadow=0;labelBackgroundColor=none;edgeStyle=orthogonalEdgeStyle;" edge="1" parent="WIyWlLk6GJQsqaUBKTNV-1">
          <mxGeometry relative="1" as="geometry">
            <mxPoint x="214.47" y="200" as="targetPoint" />
            <mxPoint x="214.47" y="150" as="sourcePoint" />
          </mxGeometry>
        </mxCell>
        <mxCell id="0ksEMlfksTZ5qbVNrLkg-6" value="&lt;font style=&quot;font-size: 14px; font-weight: normal;&quot;&gt;&lt;i&gt;Yes&lt;/i&gt;&lt;/font&gt; " style="text;strokeColor=none;fillColor=none;html=1;fontSize=24;fontStyle=1;verticalAlign=middle;align=center;" vertex="1" parent="WIyWlLk6GJQsqaUBKTNV-1">
          <mxGeometry x="140" y="280" width="100" height="40" as="geometry" />
        </mxCell>
        <mxCell id="0ksEMlfksTZ5qbVNrLkg-7" value="&lt;font style=&quot;font-size: 14px;&quot;&gt;&lt;i&gt;No&lt;/i&gt;&lt;/font&gt;" style="text;strokeColor=none;fillColor=none;html=1;fontSize=24;fontStyle=0;verticalAlign=middle;align=center;" vertex="1" parent="WIyWlLk6GJQsqaUBKTNV-1">
          <mxGeometry x="40" y="190" width="110" height="40" as="geometry" />
        </mxCell>
        <mxCell id="0ksEMlfksTZ5qbVNrLkg-8" value="Wait for the next player" style="rounded=1;whiteSpace=wrap;html=1;" vertex="1" parent="WIyWlLk6GJQsqaUBKTNV-1">
          <mxGeometry x="137.5" y="30" width="155" height="40" as="geometry" />
        </mxCell>
        <mxCell id="0ksEMlfksTZ5qbVNrLkg-9" value="" style="rounded=0;html=1;jettySize=auto;orthogonalLoop=1;fontSize=11;endArrow=block;endFill=0;endSize=8;strokeWidth=1;shadow=0;labelBackgroundColor=none;edgeStyle=orthogonalEdgeStyle;" edge="1" parent="WIyWlLk6GJQsqaUBKTNV-1">
          <mxGeometry relative="1" as="geometry">
            <mxPoint x="214.47" y="120" as="targetPoint" />
            <mxPoint x="214.47" y="70" as="sourcePoint" />
          </mxGeometry>
        </mxCell>
        <mxCell id="0ksEMlfksTZ5qbVNrLkg-10" value="" style="rounded=0;html=1;jettySize=auto;orthogonalLoop=1;fontSize=11;endArrow=block;endFill=0;endSize=8;strokeWidth=1;shadow=0;labelBackgroundColor=none;edgeStyle=orthogonalEdgeStyle;exitX=0;exitY=0.5;exitDx=0;exitDy=0;entryX=0;entryY=0.5;entryDx=0;entryDy=0;" edge="1" parent="WIyWlLk6GJQsqaUBKTNV-1" source="0ksEMlfksTZ5qbVNrLkg-2" target="0ksEMlfksTZ5qbVNrLkg-8">
          <mxGeometry relative="1" as="geometry">
            <mxPoint x="70" y="40" as="targetPoint" />
            <mxPoint x="60" y="250" as="sourcePoint" />
            <Array as="points">
              <mxPoint x="60" y="245" />
              <mxPoint x="60" y="50" />
            </Array>
          </mxGeometry>
        </mxCell>
      </root>
    </mxGraphModel>
  </diagram>
</mxfile>
